<svg xmlns="http://www.w3.org/2000/svg" xmlns:xlink="http://www.w3.org/1999/xlink" viewBox="737 1564 52 56">
  <defs>
    <style>
      .cls-1 {
        fill: #f13d2e;
      }

      .cls-2 {
        clip-path: url(#clip-cart-hover);
      }

      .cls-3 {
        clip-path: url(#clip-path);
      }
    </style>
    <clipPath id="clip-path">
      <rect id="Rectangle_6" data-name="Rectangle 6" class="cls-1" width="51" height="54" transform="translate(235 137)"/>
    </clipPath>
    <clipPath id="clip-cart-hover">
      <rect x="737" y="1564" width="52" height="56"/>
    </clipPath>
  </defs>
  <g id="cart-hover" class="cls-2">
    <g id="cart" class="cls-3" transform="translate(502 1427)">
      <g id="cart-2" data-name="cart" transform="translate(217.8 137)">
        <path id="Tracé_1" data-name="Tracé 1" class="cls-1" d="M31.45,35.38H61.1a6.112,6.112,0,0,0,6.1-6.1V16.695a.14.14,0,0,0-.011-.066c0-.022-.011-.055-.011-.077s-.011-.044-.011-.066a.7.7,0,0,1-.022-.077c-.011-.022-.011-.044-.022-.066s-.011-.044-.022-.066a.538.538,0,0,1-.033-.077.242.242,0,0,0-.033-.055L67,16.076c-.011-.022-.022-.033-.033-.055s-.033-.044-.044-.066a.194.194,0,0,0-.044-.055c-.011-.022-.033-.033-.044-.055s-.033-.033-.044-.055-.033-.033-.044-.044l-.055-.055c-.022-.011-.033-.033-.055-.044s-.044-.033-.066-.044-.033-.022-.055-.033a.231.231,0,0,1-.066-.044l-.066-.033-.066-.033-.066-.033c-.022-.011-.044-.011-.066-.022a.205.205,0,0,0-.077-.022.479.479,0,0,1-.055-.011.244.244,0,0,0-.088-.011c-.011,0-.022-.011-.044-.011L28.343,10.168V4.933a.678.678,0,0,0-.011-.155.083.083,0,0,0-.011-.044c0-.033-.011-.066-.011-.1a.253.253,0,0,0-.022-.088.12.12,0,0,1-.011-.055l-.033-.1c0-.011-.011-.033-.011-.044a.331.331,0,0,0-.044-.088c-.011-.011-.011-.033-.022-.044a.231.231,0,0,0-.044-.066c-.011-.022-.022-.033-.033-.055s-.022-.033-.033-.055-.033-.044-.044-.066L27.98,3.94l-.066-.066-.033-.033a.481.481,0,0,0-.077-.066c-.011-.011-.033-.022-.044-.033s-.044-.033-.066-.055A1.02,1.02,0,0,0,27.6,3.63c-.011-.011-.022-.011-.033-.022-.044-.022-.1-.044-.144-.066L19.276.118a1.493,1.493,0,1,0-1.161,2.75l7.232,3.048V38.583a6.106,6.106,0,0,0,5.319,6.041,6.022,6.022,0,1,0,11.191,3.092,5.9,5.9,0,0,0-.829-3.037H54.451a5.929,5.929,0,0,0-.829,3.037A6.027,6.027,0,1,0,59.648,41.7H31.45a3.12,3.12,0,0,1-3.118-3.114V34.541a6.18,6.18,0,0,0,3.118.839ZM38.881,47.7a3.041,3.041,0,1,1-3.041-3.037A3.041,3.041,0,0,1,38.881,47.7Zm23.819,0a3.041,3.041,0,1,1-3.041-3.037A3.041,3.041,0,0,1,62.7,47.7ZM61.1,32.4H31.45a3.12,3.12,0,0,1-3.118-3.114V13.172l35.883,4.936V29.273A3.122,3.122,0,0,1,61.1,32.4Z"/>
      </g>
    </g>
  </g>
</svg>
