<svg xmlns="http://www.w3.org/2000/svg" xmlns:xlink="http://www.w3.org/1999/xlink" viewBox="-313 1494 972 974">
  <defs>
    <style>
      .cls-1 {
        clip-path: url(#clip-attractive-products);
      }

      .cls-2 {
        fill: #282e5a;
      }

      .cls-3 {
        fill: #51567e;
      }

      .cls-4 {
        fill: #636788;
      }

      .cls-5 {
        fill: #324d5b;
      }

      .cls-6 {
        fill: #3a3f64;
      }

      .cls-7 {
        fill: #516873;
      }

      .cls-8 {
        fill: #c03a2b;
      }

      .cls-9 {
        fill: #c6cece;
      }

      .cls-10 {
        fill: #ecf0f1;
      }

      .cls-11 {
        fill: #c5142c;
      }

      .cls-12, .cls-13 {
        fill: #dbddea;
      }

      .cls-13 {
        stroke: #e3e8e8;
      }

      .cls-14 {
        fill: #64a53b;
      }

      .cls-15 {
        fill: #de001e;
      }

      .cls-16 {
        fill: #f13d2e;
      }
    </style>
    <clipPath id="clip-attractive-products">
      <rect x="-313" y="1494" width="972" height="974"/>
    </clipPath>
  </defs>
  <g id="attractive-products" class="cls-1">
    <g id="armchair" transform="translate(-313 1809)">
      <path id="Tracé_37" data-name="Tracé 37" class="cls-2" d="M397.785,441.108a23.7,23.7,0,0,0-23.631,23.631v15.754a23.631,23.631,0,0,0,47.262,0V464.739A23.7,23.7,0,0,0,397.785,441.108Zm-291.447,0a23.7,23.7,0,0,0-23.631,23.631v15.754a23.631,23.631,0,1,0,47.262,0V464.739A23.7,23.7,0,0,0,106.338,441.108Z"/>
      <path id="Tracé_38" data-name="Tracé 38" class="cls-3" d="M252.062,0c113.034,0,204.8,91.766,204.8,204.8v47.262c0,113.034-91.766,204.8-204.8,204.8s-204.8-91.766-204.8-204.8V204.8C47.262,91.766,139.028,0,252.062,0Z"/>
      <path id="Tracé_39" data-name="Tracé 39" class="cls-2" d="M250.092,269.391c110.277,0,163.84,27.963,163.84,41.354v76.012c0,15.36-12.6,13.785-27.963,13.785H118.154c-15.36,0-27.963,1.575-27.963-13.785V310.745C90.191,297.748,139.815,269.391,250.092,269.391Zm218.585,29.932V449.378a27.316,27.316,0,0,1-27.569,27.175H63.015a27.316,27.316,0,0,1-27.569-27.175V299.323Z"/>
      <path id="Tracé_40" data-name="Tracé 40" class="cls-4" d="M250.092,283.569c110.277,0,163.446,27.569,163.446,40.96v75.225c0,14.966-12.6,13.785-27.569,13.785H118.154c-15.36,0-27.569,1.575-27.569-13.785V324.529C90.585,311.926,139.815,283.569,250.092,283.569Z"/>
      <g id="Groupe_10" data-name="Groupe 10">
        <circle id="Ellipse_1" data-name="Ellipse 1" class="cls-2" cx="66.954" cy="66.954" r="66.954" transform="translate(0 220.556)"/>
        <circle id="Ellipse_2" data-name="Ellipse 2" class="cls-5" cx="66.954" cy="66.954" r="66.954" transform="translate(370.216 220.556)"/>
        <path id="Tracé_41" data-name="Tracé 41" class="cls-6" d="M269.785,169.354l10.634-10.634a9.747,9.747,0,1,0-13.785-13.785L256,155.569l-10.634-10.634a9.747,9.747,0,1,0-13.785,13.785l11.028,10.634-11.028,11.028a9.747,9.747,0,0,0,13.785,13.785l11.028-11.028,11.028,11.028a9.747,9.747,0,0,0,13.785-13.785Zm66.953-35.446a13.785,13.785,0,1,0-13.785-13.785A13.955,13.955,0,0,0,336.738,133.908ZM175.262,204.8a13.785,13.785,0,1,0,13.785,13.785A13.955,13.955,0,0,0,175.262,204.8Zm161.476,0a13.785,13.785,0,1,0,13.785,13.785A13.955,13.955,0,0,0,336.738,204.8ZM175.262,106.338a13.785,13.785,0,1,0,13.785,13.785A13.955,13.955,0,0,0,175.262,106.338Z"/>
      </g>
      <g id="Groupe_11" data-name="Groupe 11">
        <circle id="Ellipse_3" data-name="Ellipse 3" class="cls-6" cx="46.08" cy="46.08" r="46.08" transform="translate(20.874 241.43)"/>
        <circle id="Ellipse_4" data-name="Ellipse 4" class="cls-7" cx="46.08" cy="46.08" r="46.08" transform="translate(391.09 241.43)"/>
      </g>
      <path id="Tracé_42" data-name="Tracé 42" class="cls-3" d="M90.585,399.754c0,11.422,7.483,13.391,17.723,13.785h287.9c10.24-.394,17.723-1.969,17.723-13.785V358.4H90.585Z"/>
    </g>
    <g id="sneakers" transform="translate(150.525 1941.601) rotate(1)">
      <path id="Tracé_43" data-name="Tracé 43" class="cls-8" d="M26.492,213a8.411,8.411,0,0,1-1.483-.124C9.358,210.224,0,197.071,0,177.685a8.828,8.828,0,1,1,17.656,0c0,7.318,1.783,16.34,10.3,17.779A8.828,8.828,0,0,1,26.492,213"/>
      <path id="Tracé_44" data-name="Tracé 44" class="cls-9" d="M501.2,273.509l-.159.009a16.819,16.819,0,0,1,.159,11.132C458.037,336.158,0,301.351,0,301.351v61.714s211.862,0,350.835-.23c83.968-.132,127.514-16.693,148.824-32.018,11.688-8.422,15.113-23.808,10.2-37.085Z"/>
      <g id="Groupe_12" data-name="Groupe 12">
        <path id="Tracé_45" data-name="Tracé 45" class="cls-10" d="M379.587,310.664c61.325-3.354,109.047-11.026,121.609-26.015,0,0,18.1-43.158-111.378-38.983l-10.231,64.2v.8Z"/>
        <path id="Tracé_46" data-name="Tracé 46" class="cls-10" d="M357.982,250.2l7.027-16.216L200.481,156.56s-26.236,41.481-75.511,53.283l159.806,69.288A55.66,55.66,0,0,0,357.982,250.2"/>
      </g>
      <g id="Groupe_13" data-name="Groupe 13">
        <path id="Tracé_47" data-name="Tracé 47" d="M52.966,230.652a8.828,8.828,0,1,1-8.828,8.828,8.831,8.831,0,0,1,8.828-8.828"/>
        <path id="Tracé_48" data-name="Tracé 48" d="M44.139,265.962a8.828,8.828,0,1,1-8.828,8.828,8.831,8.831,0,0,1,8.828-8.828"/>
      </g>
      <g id="Groupe_14" data-name="Groupe 14">
        <path id="Tracé_49" data-name="Tracé 49" class="cls-9" d="M211.854,212.768A8.828,8.828,0,0,1,204.3,199.4l26.483-44.138a8.826,8.826,0,1,1,15.13,9.092l-26.483,44.138a8.812,8.812,0,0,1-7.574,4.281"/>
        <path id="Tracé_50" data-name="Tracé 50" class="cls-9" d="M247.164,230.423a8.828,8.828,0,0,1-7.556-13.373l26.483-44.138A8.826,8.826,0,0,1,281.221,182l-26.483,44.138a8.811,8.811,0,0,1-7.574,4.281"/>
        <path id="Tracé_51" data-name="Tracé 51" class="cls-9" d="M282.475,248.078a8.828,8.828,0,0,1-7.556-13.373L301.4,190.567a8.826,8.826,0,0,1,15.13,9.092L290.049,243.8a8.813,8.813,0,0,1-7.574,4.281"/>
        <path id="Tracé_52" data-name="Tracé 52" class="cls-9" d="M317.785,265.733a8.828,8.828,0,0,1-7.556-13.373l26.483-44.138a8.826,8.826,0,0,1,15.13,9.092l-26.483,44.138a8.812,8.812,0,0,1-7.574,4.281"/>
      </g>
      <path id="Tracé_53" data-name="Tracé 53" class="cls-11" d="M379.587,309.873l10.231-64.212-24.806-11.67L357.985,250.2a55.658,55.658,0,0,1-73.216,28.928L124.963,209.847h.009c-27.321,6.541-61.705,4-102.7-19.871,0,0-19.023,101.632-22.272,111.378,0,0,230.206,17.487,379.586,9.313v-.794Z"/>
    </g>
    <g id="yard" transform="translate(-187.495 1639.262)">
      <g id="Groupe_15" data-name="Groupe 15" transform="translate(59.494 7.126)">
        <path id="Tracé_54" data-name="Tracé 54" class="cls-12" d="M119.215,87.761a16.2,16.2,0,0,0-16.2,16.2v73.124h32.4V103.962A16.2,16.2,0,0,0,119.215,87.761Z" transform="translate(-44.898 22.311)"/>
        <path id="Tracé_55" data-name="Tracé 55" class="cls-12" d="M87.155,110.857A16.2,16.2,0,0,0,64.24,133.771l38.885,38.885,22.915-22.915Z" transform="translate(-59.495 28.467)"/>
        <path id="Tracé_56" data-name="Tracé 56" class="cls-12" d="M183.061,110.371a16.2,16.2,0,0,0-22.913-.029l-38.885,38.786,22.884,22.943,38.885-38.786A16.2,16.2,0,0,0,183.061,110.371Z" transform="translate(-38.776 28.299)"/>
        <path id="Tracé_57" data-name="Tracé 57" class="cls-13" d="M400.639,5.336a16.2,16.2,0,0,0-16.2,16.2V94.663h32.4V21.539A16.2,16.2,0,0,0,400.639,5.336Z" transform="translate(49.499 -5.336)"/>
        <path id="Tracé_58" data-name="Tracé 58" class="cls-12" d="M368.58,28.432a16.2,16.2,0,1,0-22.915,22.915L384.55,90.231l22.915-22.915Z" transform="translate(34.903 0.819)"/>
        <path id="Tracé_59" data-name="Tracé 59" class="cls-12" d="M464.485,27.946a16.2,16.2,0,0,0-22.913-.029L402.687,66.7l22.884,22.943,38.885-38.785A16.2,16.2,0,0,0,464.485,27.946Z" transform="translate(55.621 0.651)"/>
      </g>
      <path id="Tracé_60" data-name="Tracé 60" class="cls-14" d="M501.567,64.048a42.208,42.208,0,0,0-42.207,42.209V219.445a16.9,16.9,0,0,1-16.882,16.882H394.87V81.213a81.213,81.213,0,0,0-162.425,0V318.26H184.836a16.9,16.9,0,0,1-16.882-16.882V216.328a42.207,42.207,0,1,0-84.415,0v85.049a101.414,101.414,0,0,0,101.3,101.3h47.608v85.769H394.871v-167.7h47.608a101.414,101.414,0,0,0,101.3-101.3V106.256A42.212,42.212,0,0,0,501.567,64.048Z" transform="translate(8.065)"/>
      <path id="Tracé_61" data-name="Tracé 61" class="cls-15" d="M403.621,365.765l-5.184,62.4L285.815,476.767,172.3,428.16c-.016,0-5.184-62.4-5.184-62.4Z" transform="translate(36.099 122.687)"/>
      <g id="Groupe_16" data-name="Groupe 16" transform="translate(175.585 472.241)">
        <path id="Tracé_62" data-name="Tracé 62" class="cls-16" d="M417.933,386.031h-255.3a16.2,16.2,0,1,1,0-32.405h255.3a16.2,16.2,0,0,1,0,32.405Z" transform="translate(-146.426 -353.626)"/>
        <path id="Tracé_63" data-name="Tracé 63" class="cls-16" d="M397.135,412.488,386.117,545.379h-204.1L171,412.488Z" transform="translate(-138.184 -333.882)"/>
      </g>
    </g>
  </g>
</svg>
