<svg xmlns="http://www.w3.org/2000/svg" xmlns:xlink="http://www.w3.org/1999/xlink" viewBox="807 438 555 921">
  <defs>
    <style>
      .cls-1 {
        clip-path: url(#clip-new-creator);
      }

      .cls-2 {
        fill: #f0f1f5;
      }

      .cls-3 {
        fill: #dbddea;
      }

      .cls-4 {
        fill: #eaebf2;
      }

      .cls-5 {
        fill: #c6cece;
      }

      .cls-6 {
        fill: #c5142c;
      }

      .cls-7 {
        fill: #e3e8e8;
      }

      .cls-8 {
        fill: #f13d2e;
      }

      .cls-9 {
        fill: #4d4e5b;
      }
    </style>
    <clipPath id="clip-new-creator">
      <rect x="807" y="438" width="555" height="921"/>
    </clipPath>
  </defs>
  <g id="new-creator" class="cls-1">
    <path id="Tracé_37" data-name="Tracé 37" class="cls-2" d="M55.093,110.761,61.637,128.5a1.7,1.7,0,0,0,3.186,0l6.544-17.743A52.313,52.313,0,0,1,102.35,79.778l17.743-6.544a1.7,1.7,0,0,0,0-3.186L102.349,63.5A52.312,52.312,0,0,1,71.367,32.522L64.823,14.779a1.7,1.7,0,0,0-3.186,0L55.093,32.522A52.314,52.314,0,0,1,24.11,63.5L6.366,70.048a1.7,1.7,0,0,0,0,3.186l17.743,6.544A52.309,52.309,0,0,1,55.093,110.761Z" transform="translate(1218.744 1123)"/>
    <path id="Tracé_38" data-name="Tracé 38" class="cls-3" d="M198.948,185.7l-17.742-6.543a52.311,52.311,0,0,1-30.983-30.982l-6.544-17.743a1.7,1.7,0,0,0-3.186,0l-6.544,17.742a52.316,52.316,0,0,1-30.983,30.983L85.223,185.7a1.7,1.7,0,0,0,0,3.186l17.744,6.545a52.315,52.315,0,0,1,30.982,30.982l6.544,17.744a1.7,1.7,0,0,0,3.186,0l6.544-17.744A52.312,52.312,0,0,1,181.2,195.434l17.744-6.545a1.7,1.7,0,0,0,0-3.186Z" transform="translate(881.744 415)"/>
    <path id="Tracé_39" data-name="Tracé 39" class="cls-3" d="M290.778,109.811l-12.059-4.447a35.557,35.557,0,0,1-21.056-21.056L253.216,72.25a1.154,1.154,0,0,0-2.166,0L246.6,84.307a35.555,35.555,0,0,1-21.057,21.057l-12.058,4.447a1.154,1.154,0,0,0,0,2.165l12.059,4.446A35.561,35.561,0,0,1,246.6,137.479l4.446,12.06a1.154,1.154,0,0,0,2.166,0l4.447-12.06a35.551,35.551,0,0,1,21.056-21.056l12.059-4.447a1.154,1.154,0,0,0,0-2.165Z" transform="translate(1029.744 854)"/>
    <path id="Tracé_40" data-name="Tracé 40" class="cls-4" d="M261.567,268.552l-8.412-3.1a24.8,24.8,0,0,1-14.687-14.686l-3.1-8.41a.8.8,0,0,0-1.51,0l-3.1,8.41a24.8,24.8,0,0,1-14.686,14.686l-8.412,3.1a.8.8,0,0,0,0,1.51l8.411,3.1a24.8,24.8,0,0,1,14.688,14.688l3.1,8.411a.8.8,0,0,0,1.51,0l3.1-8.411a24.8,24.8,0,0,1,14.688-14.688l8.411-3.1a.8.8,0,0,0,0-1.51Z" transform="translate(1092.744 391)"/>
    <path id="Tracé_41" data-name="Tracé 41" class="cls-4" d="M199.533,26.726l-8.412-3.1A24.794,24.794,0,0,1,176.435,8.937l-3.1-8.41a.8.8,0,0,0-1.51,0l-3.1,8.409a24.8,24.8,0,0,1-14.688,14.688l-8.412,3.1a.8.8,0,0,0,0,1.51l8.411,3.1A24.8,24.8,0,0,1,168.72,46.027l3.1,8.41a.8.8,0,0,0,1.51,0l3.1-8.411a24.792,24.792,0,0,1,14.688-14.687l8.411-3.1a.8.8,0,0,0,0-1.51Z" transform="translate(730.744 715)"/>
    <path id="Tracé_42" data-name="Tracé 42" class="cls-3" d="M96.359,251.26l-10.58-3.9A31.2,31.2,0,0,1,67.3,228.885L63.4,218.3a1.013,1.013,0,0,0-1.9,0l-3.9,10.579A31.2,31.2,0,0,1,39.125,247.36l-10.578,3.9a1.013,1.013,0,0,0,0,1.9l10.579,3.9A31.2,31.2,0,0,1,57.6,275.537l3.9,10.58a1.013,1.013,0,0,0,1.9,0l3.9-10.581a31.194,31.194,0,0,1,18.474-18.474l10.581-3.9a1.013,1.013,0,0,0,0-1.9Z" transform="translate(778.744 850)"/>
    <g id="scissors" transform="translate(826 659.519)">
      <path id="Tracé_43" data-name="Tracé 43" class="cls-5" d="M280.8,195.844c18.133,5.333,28.8,23.467,27.733,41.6L384.271,4.911c-68.267-22.4-94.933,45.867-105.6,76.8-7.467,22.4-25.6,75.733-43.733,131.2C244.538,197.978,262.671,189.444,280.8,195.844Z"/>
      <g id="Groupe_10" data-name="Groupe 10">
        <path id="Tracé_44" data-name="Tracé 44" class="cls-6" d="M280.8,195.844c-18.133-5.333-37.333,2.133-45.867,17.067-27.733,84.267-56.533,176-56.533,176l94.933-43.733,35.2-108.8C309.605,219.311,298.938,201.178,280.8,195.844Z"/>
        <path id="Tracé_45" data-name="Tracé 45" class="cls-6" d="M298.938,319.578c-49.067-16-102.4,10.667-117.333,59.733s10.667,102.4,59.733,117.333c49.067,16,102.4-10.667,117.333-59.733A92.854,92.854,0,0,0,298.938,319.578ZM252.005,462.511a57.684,57.684,0,1,1,72.533-37.333C313.871,456.111,281.871,473.178,252.005,462.511Z"/>
      </g>
      <path id="Tracé_46" data-name="Tracé 46" class="cls-7" d="M306.4,221.444c-5.333-18.133-23.467-28.8-41.6-27.733l232.533-75.733c22.4,68.267-45.867,94.933-76.8,105.6-22.4,7.467-75.733,25.6-131.2,43.733C304.271,257.711,312.8,239.578,306.4,221.444Z"/>
      <g id="Groupe_11" data-name="Groupe 11">
        <path id="Tracé_47" data-name="Tracé 47" class="cls-8" d="M306.4,221.444c5.333,18.133-2.133,37.333-17.067,45.867-84.267,27.733-176,56.533-176,56.533l43.733-94.933,108.8-35.2C282.938,192.644,301.071,203.311,306.4,221.444Z"/>
        <path id="Tracé_48" data-name="Tracé 48" class="cls-8" d="M65.338,143.578a94.145,94.145,0,0,0-60.8,118.4c16,50.133,68.267,75.733,117.333,59.733A92.855,92.855,0,0,0,181.6,204.378C166.671,154.244,114.4,127.578,65.338,143.578ZM76,177.711c29.867-9.6,61.867,6.4,72.533,37.333,9.6,29.867-6.4,61.867-37.333,72.533-29.867,9.6-61.867-6.4-72.533-37.333C29.071,220.378,46.138,188.378,76,177.711Z"/>
      </g>
      <circle id="Ellipse_1" data-name="Ellipse 1" class="cls-9" cx="11.733" cy="11.733" r="11.733" transform="translate(257.338 220.378)"/>
    </g>
  </g>
</svg>
