<svg xmlns="http://www.w3.org/2000/svg" xmlns:xlink="http://www.w3.org/1999/xlink" viewBox="-349 438 1086 902">
  <defs>
    <style>
      .cls-1 {
        clip-path: url(#clip-original-gifts);
      }

      .cls-2 {
        fill: #ffe182;
      }

      .cls-3 {
        fill: #ffcd73;
      }

      .cls-4 {
        fill: #ffaa64;
      }

      .cls-5 {
        fill: #ff8c5a;
      }

      .cls-6 {
        fill: #d3d5d6;
      }

      .cls-7 {
        fill: #9cd7fd;
      }

      .cls-8 {
        fill: #343962;
      }

      .cls-9 {
        fill: #f13d2e;
      }

      .cls-10 {
        fill: #c5142c;
      }

      .cls-11 {
        fill: #f6e27d;
      }
    </style>
    <clipPath id="clip-original-gifts">
      <rect x="-349" y="438" width="1086" height="902"/>
    </clipPath>
  </defs>
  <g id="original-gifts" class="cls-1">
    <g id="diamond" transform="matrix(0.966, -0.259, 0.259, 0.966, -359.673, 490.123)">
      <path id="Tracé_37" data-name="Tracé 37" class="cls-2" d="M327.385,172.138,256,377.9,431.5,172.138Z" transform="translate(-80.501 -41.639)"/>
      <g id="Groupe_10" data-name="Groupe 10" transform="translate(0 39.724)">
        <path id="Tracé_38" data-name="Tracé 38" class="cls-3" d="M72.62,39.724,0,130.5H104.114Z" transform="translate(0 -39.724)"/>
        <path id="Tracé_39" data-name="Tracé 39" class="cls-3" d="M360.129,130.5H464.243l-72.62-90.775Z" transform="translate(-113.245 -39.724)"/>
        <path id="Tracé_40" data-name="Tracé 40" class="cls-3" d="M294.641,130.5,223.256,39.724,151.871,130.5Z" transform="translate(-47.757 -39.724)"/>
      </g>
      <path id="Tracé_41" data-name="Tracé 41" class="cls-4" d="M208.81,39.724H105.931L137.425,130.5Z" transform="translate(-33.311)"/>
      <path id="Tracé_42" data-name="Tracé 42" class="cls-2" d="M358.879,39.724H256L327.385,130.5Z" transform="translate(-80.501)"/>
      <path id="Tracé_43" data-name="Tracé 43" class="cls-4" d="M151.871,172.138,223.256,377.9l71.385-205.757Z" transform="translate(-47.757 -41.639)"/>
      <path id="Tracé_44" data-name="Tracé 44" class="cls-5" d="M0,172.138,175.5,377.9,104.114,172.138Z" transform="translate(0 -41.639)"/>
    </g>
    <g id="crochet" transform="translate(-120.537 945.243) rotate(16)">
      <g id="Groupe_11" data-name="Groupe 11" transform="translate(0.001 215.45)">
        <path id="Tracé_45" data-name="Tracé 45" class="cls-6" d="M344.035,445.911a5.3,5.3,0,0,1-1.763-.306L88.849,355.851a5.277,5.277,0,1,1,3.527-9.947L345.8,435.658a5.279,5.279,0,0,1-1.764,10.253" transform="translate(-32.538 -345.596)"/>
        <path id="Tracé_46" data-name="Tracé 46" class="cls-6" d="M5.28,445.911a5.279,5.279,0,0,1-1.763-10.253L256.939,345.9a5.277,5.277,0,0,1,3.527,9.947L7.044,445.605a5.305,5.305,0,0,1-1.764.306" transform="translate(-0.001 -345.596)"/>
      </g>
      <path id="Tracé_47" data-name="Tracé 47" class="cls-3" d="M296.518,109.859A105.593,105.593,0,1,1,190.925,4.266,105.591,105.591,0,0,1,296.518,109.859" transform="translate(-32.537)"/>
      <path id="Tracé_48" data-name="Tracé 48" class="cls-7" d="M71.889,317.544a31.678,31.678,0,1,1-31.678-31.678,31.676,31.676,0,0,1,31.678,31.678" transform="translate(-3.253 -107.372)"/>
      <path id="Tracé_49" data-name="Tracé 49" class="cls-8" d="M39.412,337.865a5.274,5.274,0,0,1-5.279-5.279,21.139,21.139,0,0,1,21.118-21.118,5.279,5.279,0,1,1,0,10.559,10.57,10.57,0,0,0-10.559,10.559,5.275,5.275,0,0,1-5.279,5.279" transform="translate(-13.014 -117.134)"/>
      <path id="Tracé_50" data-name="Tracé 50" class="cls-7" d="M464.422,317.544a31.678,31.678,0,1,1-31.678-31.678,31.676,31.676,0,0,1,31.678,31.678" transform="translate(-152.923 -107.372)"/>
      <path id="Tracé_51" data-name="Tracé 51" class="cls-8" d="M431.945,337.865a5.274,5.274,0,0,1-5.279-5.279,21.139,21.139,0,0,1,21.118-21.118,5.279,5.279,0,0,1,0,10.559,10.57,10.57,0,0,0-10.559,10.559,5.274,5.274,0,0,1-5.279,5.279" transform="translate(-162.685 -117.134)"/>
      <g id="Groupe_12" data-name="Groupe 12" transform="translate(52.871 6.164)">
        <path id="Tracé_52" data-name="Tracé 52" class="cls-5" d="M131.962,78.551,240.269,11.025a103.909,103.909,0,0,0-14.044-3.691L126.371,69.592Z" transform="translate(-101.055 -7.334)"/>
        <path id="Tracé_53" data-name="Tracé 53" class="cls-5" d="M291.012,30.718,200.186,89.105l5.713,8.88,94.416-60.695a104.542,104.542,0,0,0-9.3-6.573" transform="translate(-129.201 -16.25)"/>
        <path id="Tracé_54" data-name="Tracé 54" class="cls-5" d="M342.659,67.228l-74.116,46.324,5.6,8.949,74.776-46.73c-1.953-2.951-4.028-5.807-6.256-8.542" transform="translate(-155.265 -30.171)"/>
        <path id="Tracé_55" data-name="Tracé 55" class="cls-5" d="M381.575,108.223l-51.186,28.436,5.127,9.229L385.25,118.26a103.334,103.334,0,0,0-3.674-10.037" transform="translate(-178.846 -45.802)"/>
        <path id="Tracé_56" data-name="Tracé 56" class="cls-5" d="M166.366,267.006l156.383-79.928a106.687,106.687,0,0,0,.755-12.185c0-.021-.006-.037-.006-.058l-167.39,85.552a104.8,104.8,0,0,0,10.258,6.62" transform="translate(-112.394 -71.201)"/>
        <path id="Tracé_57" data-name="Tracé 57" class="cls-5" d="M218.814,299.928l110.46-55.23a105,105,0,0,0,6.388-15l-132.83,66.413a104.287,104.287,0,0,0,15.982,3.817" transform="translate(-130.209 -92.12)"/>
        <path id="Tracé_58" data-name="Tracé 58" class="cls-5" d="M101.4,246.111l70.61,24.561,3.464-9.973L95.658,232.938a105,105,0,0,0,5.744,13.173" transform="translate(-89.345 -93.355)"/>
        <path id="Tracé_59" data-name="Tracé 59" class="cls-5" d="M86.24,188.712l123.8,41.213,3.332-10.021L85.454,177.319a106.564,106.564,0,0,0,.786,11.393" transform="translate(-85.454 -72.148)"/>
        <path id="Tracé_60" data-name="Tracé 60" class="cls-5" d="M86.77,147.4l163.853,44.539,2.772-10.185-164.8-44.8A104.759,104.759,0,0,0,86.77,147.4" transform="translate(-85.956 -56.758)"/>
        <path id="Tracé_61" data-name="Tracé 61" class="cls-5" d="M300.94,145.272,101.328,97.539a104.731,104.731,0,0,0-4.377,9.81L299.72,155.837l.887-3.717c.142-2.228.338-4.435.338-6.694,0-.053-.006-.1-.006-.153" transform="translate(-89.838 -41.729)"/>
      </g>
    </g>
    <g id="supermarket-gift" transform="matrix(0.978, 0.208, -0.208, 0.978, 273.873, 463.369)">
      <path id="Tracé_62" data-name="Tracé 62" class="cls-2" d="M323.368,0A67.368,67.368,0,0,0,256,67.368a67.368,67.368,0,1,0-67.368,67.368H323.368A67.368,67.368,0,0,0,323.368,0ZM215.579,94.316H188.632a26.947,26.947,0,1,1,26.947-26.947Zm107.789,0H296.421V67.368a26.947,26.947,0,1,1,26.947,26.948Z"/>
      <path id="Tracé_63" data-name="Tracé 63" class="cls-3" d="M323.368,0a67.374,67.374,0,0,0-20.211,3.088,67.377,67.377,0,0,1-20.21,131.648h40.421A67.368,67.368,0,1,0,323.368,0Z"/>
      <rect id="Rectangle_6" data-name="Rectangle 6" class="cls-9" width="404.211" height="282.947" transform="translate(53.895 229.053)"/>
      <path id="Tracé_64" data-name="Tracé 64" class="cls-10" d="M53.9,229.053v40.421H390.737V512h67.368V229.053Z"/>
      <path id="Tracé_66" data-name="Tracé 66" class="cls-9" d="M0,0H458.105V107.789H0Z" transform="translate(26.947 134.737)"/>
      <rect id="Rectangle_8" data-name="Rectangle 8" class="cls-10" width="67.368" height="107.789" transform="translate(417.684 134.737)"/>
      <rect id="Rectangle_9" data-name="Rectangle 9" class="cls-2" width="80.842" height="377.263" transform="translate(215.579 134.737)"/>
      <rect id="Rectangle_10" data-name="Rectangle 10" class="cls-11" width="80.842" height="26.947" transform="translate(215.579 242.526)"/>
      <path id="Tracé_65" data-name="Tracé 65" class="cls-3" d="M188.632,0a67.374,67.374,0,0,0-20.211,3.088,67.4,67.4,0,0,1,47.158,64.28v67.368H256V67.368A67.368,67.368,0,0,0,188.632,0Z"/>
    </g>
  </g>
</svg>
