<svg xmlns="http://www.w3.org/2000/svg" xmlns:xlink="http://www.w3.org/1999/xlink" viewBox="-1505 438 1086 1088">
  <defs>
    <style>
      .cls-1 {
        clip-path: url(#clip-paint);
      }

      .cls-2 {
        fill: #3a3f64;
      }

      .cls-3 {
        fill: #282e5a;
      }

      .cls-4 {
        fill: #f4f0d3;
      }

      .cls-5 {
        fill: #d3d5d6;
      }

      .cls-6 {
        fill: #c8cacb;
      }

      .cls-7 {
        fill: #bdbfc0;
      }

      .cls-8 {
        fill: #e8e4c8;
      }

      .cls-9 {
        fill: #f13d2e;
      }

      .cls-10 {
        fill: #b4b5b6;
      }

      .cls-11 {
        fill: #c31818;
      }

      .cls-12 {
        fill: #c5142c;
      }

      .cls-13 {
        fill: #ac3327;
      }

      .cls-14 {
        fill: #d6d6d6;
      }

      .cls-15 {
        fill: #cacaca;
      }

      .cls-16 {
        fill: #cb4e44;
      }

      .cls-17 {
        fill: #e0e0e0;
      }

      .cls-18 {
        fill: #ff8c5a;
      }

      .cls-19 {
        fill: #d1d1d1;
      }

      .cls-20 {
        fill: #ebebeb;
      }

      .cls-21 {
        fill: #bb6f39;
      }

      .cls-22 {
        fill: #dbdbdb;
      }

      .cls-23 {
        fill: #ffaa64;
      }

      .cls-24 {
        fill: #ffe182;
      }

      .cls-25 {
        fill: #e6e6e6;
      }

      .cls-26 {
        fill: #dba250;
      }

      .cls-27 {
        fill: #efefef;
      }

      .cls-28 {
        fill: #ddd;
      }

      .cls-29 {
        fill: #bfbfbf;
      }

      .cls-30 {
        fill: #e6be94;
      }

      .cls-31, .cls-37 {
        fill: #fff;
      }

      .cls-31 {
        opacity: 0.438;
      }

      .cls-32 {
        fill: #ffcd00;
      }

      .cls-33 {
        fill: #ffe671;
      }

      .cls-34 {
        fill: #00c37a;
      }

      .cls-35 {
        fill: #60dc4d;
      }

      .cls-36 {
        fill: #9cd7fd;
      }

      .cls-37 {
        opacity: 0.5;
      }

      .cls-38 {
        fill: #009bca;
      }

      .cls-39 {
        fill: #4cd7ff;
      }
    </style>
    <clipPath id="clip-paint">
      <rect x="-1505" y="438" width="1086" height="1088"/>
    </clipPath>
  </defs>
  <g id="paint" class="cls-1">
    <g id="paint-brush" transform="translate(-925 819.607)">
      <path id="Tracé_37" data-name="Tracé 37" class="cls-2" d="M289.871,397.982a10.365,10.365,0,0,1-14.178-.394c-39.778-40.566-97.674-34.265-125.637-5.908-18.511,18.9-28.751,49.231-42.142,67.742-7.089,10.24-16.148,20.48-25.994,30.326,0,0-11.815,13.391-33.477,13.391a48.472,48.472,0,0,1-35.052-81.921l.394-.394.394-.394a242.176,242.176,0,0,1,29.145-25.206c18.511-13.391,48.443-23.631,66.954-42.535,27.963-28.357,34.265-86.646-5.514-126.818a9.434,9.434,0,0,1-2.757-7.483,10.789,10.789,0,0,1,3.151-7.089l50.806-51.2,184.32,186.289S289.871,397.982,289.871,397.982Z"/>
      <path id="Tracé_38" data-name="Tracé 38" class="cls-3" d="M105.551,211.3a13.116,13.116,0,0,0-3.151,7.089,10.4,10.4,0,0,0,2.757,7.483c39.778,40.172,33.871,98.462,5.514,126.818-18.511,18.9-48.837,29.145-66.954,42.535a242.33,242.33,0,0,0-29.145,25.206l-.394.394-.394.394C18.51,416.491.393,431.457.393,454.694c0,13.391,5.514,25.206,14.178,34.265L244.577,259.347l-76.406-87.434L156.356,160.1Z"/>
      <path id="Tracé_39" data-name="Tracé 39" class="cls-4" d="M330.437,4.923,499,173.1a13.789,13.789,0,0,1,0,19.692l-109.1,109.1a13.789,13.789,0,0,1-19.692,0L201.256,133.711a13.789,13.789,0,0,1,0-19.692L310.745,4.923C315.865-.591,324.923-.591,330.437,4.923Z"/>
      <path id="Tracé_40" data-name="Tracé 40" class="cls-5" d="M200.468,115.2,397.785,293.612l-72.074,68.135L132.726,183.729Z"/>
      <path id="Tracé_41" data-name="Tracé 41" class="cls-6" d="M200.468,115.2,300.111,205,230.4,273.92l-97.674-89.8Z"/>
      <path id="Tracé_42" data-name="Tracé 42" class="cls-7" d="M278.055,259.348a15.874,15.874,0,1,0,22.449,0C294.6,253.44,284.357,253.44,278.055,259.348Zm58.29,35.446a15.874,15.874,0,1,0,0,22.449A16.434,16.434,0,0,0,336.345,294.794Z"/>
      <path id="Tracé_43" data-name="Tracé 43" class="cls-8" d="M484.825,158.917a6.894,6.894,0,0,0-9.846,0l-85.071,84.677a6.962,6.962,0,0,0,9.846,9.846l85.071-84.677A6.894,6.894,0,0,0,484.825,158.917Zm-23.631-23.631a6.894,6.894,0,0,0-9.846,0l-85.071,84.677a6.962,6.962,0,1,0,9.846,9.846l85.071-84.677A6.894,6.894,0,0,0,461.194,135.286ZM413.538,88.025a6.894,6.894,0,0,0-9.846,0l-85.071,84.283a6.962,6.962,0,1,0,9.846,9.846l85.071-84.283A6.894,6.894,0,0,0,413.538,88.025Zm-23.63-23.631a6.894,6.894,0,0,0-9.846,0l-85.071,84.283a6.962,6.962,0,0,0,9.846,9.846L389.908,74.24A6.894,6.894,0,0,0,389.908,64.394ZM365.883,40.369a6.894,6.894,0,0,0-9.846,0L271.36,125.046a6.962,6.962,0,1,0,9.846,9.846l84.677-84.283A7.373,7.373,0,0,0,365.883,40.369ZM342.252,16.738a6.894,6.894,0,0,0-9.846,0l-85.071,84.677a6.962,6.962,0,0,0,9.846,9.846l85.071-84.677A6.894,6.894,0,0,0,342.252,16.738Z"/>
      <path id="Tracé_44" data-name="Tracé 44" class="cls-9" d="M499.4,172.7,330.437,4.529a13.789,13.789,0,0,0-19.692,0L298.536,16.738l74.831,74.043c5.908,11.028,4.332,24.812-6.3,34.265l-9.452,11.028a13.456,13.456,0,0,0,0,20.48c6.3,5.514,16.935,5.12,22.055-.788l-29.145,28.357a13.6,13.6,0,0,0,0,20.086,15.238,15.238,0,0,0,20.874,0l13.391-13.391a14.262,14.262,0,0,0,0,20.086,13.789,13.789,0,0,0,19.692,0L428.9,185.3a28.3,28.3,0,0,1,40.566,0l18.511,18.117L499.4,192c5.514-4.726,5.514-13.785,0-19.3Z"/>
      <path id="Tracé_45" data-name="Tracé 45" class="cls-10" d="M205.588,164.825a15.874,15.874,0,1,1-22.449,0A15.691,15.691,0,0,1,205.588,164.825Zm35.446,35.446a15.874,15.874,0,1,1-22.449,0C224.886,193.969,235.126,193.969,241.034,200.271Z"/>
      <path id="Tracé_46" data-name="Tracé 46" class="cls-11" d="M367.458,124.652l-9.452,11.028c-6.3,5.514-6.3,14.572,0,20.48,5.908,5.12,15.36,5.12,20.874.394l9.058-8.665c-5.514,5.514-15.754,6.3-22.055.788s-6.3-14.572,0-20.48l9.452-11.028a28.022,28.022,0,0,0,6.3-33.871L306.806,9.649l-7.877,7.877L373.76,91.175A27.461,27.461,0,0,1,367.458,124.652Zm-8.664,71.68c-5.514-5.12-5.514-13.785-.788-19.3l-7.089,6.7a13.6,13.6,0,0,0,0,20.086,15.238,15.238,0,0,0,20.874,0l7.877-7.877A14.863,14.863,0,0,1,358.794,196.332Zm33.871,7.09a14.262,14.262,0,0,1,0-20.086l-7.877,7.877a14.262,14.262,0,0,0,0,20.086,13.789,13.789,0,0,0,19.692,0l6.3-6.3C405.268,208.935,397.785,208.148,392.665,203.422Zm102.793-7.484-18.511-17.723a27.831,27.831,0,0,0-40.172,0l-5.514,5.514A28.361,28.361,0,0,1,469.07,185.7l18.511,17.723L499,192Z"/>
    </g>
    <g id="pantone" transform="translate(-1352.188 438)">
      <path id="Tracé_47" data-name="Tracé 47" class="cls-12" d="M41.493,281.6l45.686-79.951a17.326,17.326,0,0,1,23.631-6.3L447.942,391.876a17.326,17.326,0,0,1,6.3,23.631l-45.686,79.951a17.326,17.326,0,0,1-23.631,6.3L47.794,305.231A17.326,17.326,0,0,1,41.493,281.6Z"/>
      <path id="Tracé_48" data-name="Tracé 48" class="cls-13" d="M87.573,203.225l-.788-.788-9.058,16.148L336.484,449.379Z"/>
      <path id="Tracé_49" data-name="Tracé 49" class="cls-14" d="M408.557,495.458l45.686-79.951a17.326,17.326,0,0,0-6.3-23.631L341.21,329.649,274.65,437.563l110.277,64.2A17.325,17.325,0,0,0,408.557,495.458Z"/>
      <path id="Tracé_50" data-name="Tracé 50" class="cls-15" d="M293.554,406.843l-1.969,2.757,44.505,39.778Z"/>
      <path id="Tracé_51" data-name="Tracé 51" class="cls-9" d="M87.573,179.2,152.164,115a17.354,17.354,0,0,1,24.418,0l274.9,272.148a16.88,16.88,0,0,1,0,24.025l-64.591,64.2a17.353,17.353,0,0,1-24.418,0L87.573,203.225A16.878,16.878,0,0,1,87.573,179.2Z"/>
      <path id="Tracé_52" data-name="Tracé 52" class="cls-16" d="M147.831,119.335l-14.966,14.572L306.157,393.845Z"/>
      <path id="Tracé_53" data-name="Tracé 53" class="cls-17" d="M451.486,411.175a16.88,16.88,0,0,0,0-24.025l-93.342-92.16-89.8,87.04,94.129,93.342a17.353,17.353,0,0,0,24.418,0S451.486,411.175,451.486,411.175Z"/>
      <path id="Tracé_54" data-name="Tracé 54" class="cls-18" d="M154.133,95.705l79.951-46.08a17.326,17.326,0,0,1,23.631,6.3L453.85,396.209a17.326,17.326,0,0,1-6.3,23.631L367.6,465.92a17.326,17.326,0,0,1-23.631-6.3L147.831,119.335A17.325,17.325,0,0,1,154.133,95.705Z"/>
      <path id="Tracé_55" data-name="Tracé 55" class="cls-19" d="M288.04,362.732l-1.575,1.575,19.692,29.538Z"/>
      <path id="Tracé_56" data-name="Tracé 56" class="cls-20" d="M367.991,466.314l79.951-46.08a17.326,17.326,0,0,0,6.3-23.631L385.715,277.661,277.407,344.615l66.56,115.4A17.885,17.885,0,0,0,367.991,466.314Z"/>
      <path id="Tracé_57" data-name="Tracé 57" class="cls-21" d="M240.779,56.714a19.192,19.192,0,0,1,0-9.452,22.763,22.763,0,0,0-6.7,2.363l-16.148,9.452L329,382.031ZM367.2,439.532h.788v-.394Z"/>
      <path id="Tracé_58" data-name="Tracé 58" class="cls-22" d="M367.2,439.532h.788v-.394ZM312.853,322.56l-3.545,2.363L329,382.031Z"/>
      <path id="Tracé_59" data-name="Tracé 59" class="cls-23" d="M252.594,35.84,341.6,12.209a17.572,17.572,0,0,1,21.268,11.815L464.09,395.815a17.206,17.206,0,0,1-12.209,20.874L362.872,440.32A17.572,17.572,0,0,1,341.6,428.505L240.779,56.714A16.667,16.667,0,0,1,252.594,35.84Z"/>
      <path id="Tracé_60" data-name="Tracé 60" class="cls-24" d="M362.871,0H444.4a20.339,20.339,0,0,1,20.48,20.48V404.874a20.339,20.339,0,0,1-20.48,20.48H362.871a20.339,20.339,0,0,1-20.48-20.48V20.48A20.34,20.34,0,0,1,362.871,0Z"/>
      <path id="Tracé_61" data-name="Tracé 61" class="cls-25" d="M308.52,306.806,341.6,428.5a16.907,16.907,0,0,0,21.268,11.815l89.009-23.631a17.2,17.2,0,0,0,12.209-20.874L431.006,275.691Z"/>
      <path id="Tracé_62" data-name="Tracé 62" class="cls-26" d="M342.391,20.48a18.314,18.314,0,0,1,1.969-8.271,6.7,6.7,0,0,0-2.757.394l-20.874,5.514,21.662,313.895Z"/>
      <path id="Tracé_63" data-name="Tracé 63" class="cls-27" d="M342.391,275.3V404.873a20.339,20.339,0,0,0,20.48,20.48H444.4a20.339,20.339,0,0,0,20.48-20.48V275.3Z"/>
      <path id="Tracé_64" data-name="Tracé 64" class="cls-28" d="M342.391,298.142l-2.363.788,2.363,33.083Z"/>
      <path id="Tracé_65" data-name="Tracé 65" class="cls-29" d="M362.083,295.385v19.692h66.954V295.385Zm0,102.4h27.569V385.97H362.083Zm0-27.57h27.569V358.4H362.083Zm0-27.569h27.569V330.831H362.083Zm68.924,35.446a9.846,9.846,0,1,1-9.846,9.846A9.75,9.75,0,0,1,431.007,378.092Z"/>
    </g>
    <g id="palette" transform="translate(-1526.208 1028)">
      <g id="Groupe_10" data-name="Groupe 10">
        <path id="Tracé_66" data-name="Tracé 66" class="cls-30" d="M439.208,215.578c-46.975-53.529-96-65.973-96-125,0-64.333-54.333-113.667-149.429-79.321C91.816,48.083,21.208,136.911,21.208,247.578c0,136.966,111.033,248,248,248a248.324,248.324,0,0,0,65.1-8.632l-.006-.026C439.208,456.578,525.208,313.578,439.208,215.578Zm-105.5-25.888c-14.5,18.555-54.668,7.707-70.17-18.547-13.664-23.14-8.664-56.232,14.988-70.822,13.71-8.457,31.791-.135,35.231,15.6A104.117,104.117,0,0,0,334,159.11C341.125,167.96,340.707,180.736,333.709,189.69Z"/>
      </g>
      <g id="Groupe_11" data-name="Groupe 11">
        <circle id="Ellipse_1" data-name="Ellipse 1" class="cls-9" cx="47.89" cy="47.89" r="47.89" transform="translate(117.208 87.798)"/>
      </g>
      <g id="Groupe_12" data-name="Groupe 12">
        <circle id="Ellipse_2" data-name="Ellipse 2" class="cls-31" cx="16.762" cy="16.762" r="16.762" transform="translate(160.178 106.953)"/>
      </g>
      <g id="Groupe_13" data-name="Groupe 13">
        <circle id="Ellipse_3" data-name="Ellipse 3" class="cls-32" cx="47.89" cy="47.89" r="47.89" transform="translate(69.208 207.798)"/>
      </g>
      <g id="Groupe_14" data-name="Groupe 14">
        <circle id="Ellipse_4" data-name="Ellipse 4" class="cls-33" cx="16.762" cy="16.762" r="16.762" transform="translate(112.178 226.953)"/>
      </g>
      <g id="Groupe_15" data-name="Groupe 15">
        <circle id="Ellipse_5" data-name="Ellipse 5" class="cls-34" cx="47.89" cy="47.89" r="47.89" transform="translate(124.989 319.579)"/>
      </g>
      <g id="Groupe_16" data-name="Groupe 16">
        <circle id="Ellipse_6" data-name="Ellipse 6" class="cls-35" cx="16.762" cy="16.762" r="16.762" transform="translate(167.958 338.734)"/>
      </g>
      <g id="Groupe_17" data-name="Groupe 17">
        <circle id="Ellipse_7" data-name="Ellipse 7" class="cls-36" cx="47.89" cy="47.89" r="47.89" transform="translate(245.208 359.798)"/>
      </g>
      <g id="Groupe_18" data-name="Groupe 18">
        <circle id="Ellipse_8" data-name="Ellipse 8" class="cls-37" cx="16.762" cy="16.762" r="16.762" transform="translate(288.177 378.953)"/>
      </g>
      <g id="Groupe_19" data-name="Groupe 19">
        <circle id="Ellipse_9" data-name="Ellipse 9" class="cls-38" cx="47.89" cy="47.89" r="47.89" transform="translate(333.208 271.579)"/>
      </g>
      <g id="Groupe_20" data-name="Groupe 20">
        <circle id="Ellipse_10" data-name="Ellipse 10" class="cls-39" cx="16.762" cy="16.762" r="16.762" transform="translate(376.177 290.734)"/>
      </g>
    </g>
  </g>
</svg>
